<?xml version="1.0" standalone="no"?>
<!DOCTYPE svg PUBLIC "-//W3C//DTD SVG 20010904//EN"
 "http://www.w3.org/TR/2001/REC-SVG-20010904/DTD/svg10.dtd">
<svg version="1.0" xmlns="http://www.w3.org/2000/svg"
 width="600.000000pt" height="650.000000pt" viewBox="0 0 600.000000 650.000000"
 preserveAspectRatio="xMidYMid meet">

<g transform="translate(0.000000,650.000000) scale(0.100000,-0.100000)"
fill="#000000" stroke="none">
<path d="M2596 6489 c-814 -49 -1207 -289 -1480 -905 -195 -441 -270 -997
-283 -2109 -17 -1487 85 -2236 374 -2739 236 -413 544 -616 1048 -690 230 -34
354 -41 745 -41 477 0 701 19 945 81 434 109 692 326 905 759 231 472 320
1137 320 2410 0 1500 -127 2195 -493 2688 -308 416 -753 561 -1707 555 -135 0
-303 -4 -374 -9z m784 -179 c687 -41 969 -190 1180 -625 136 -282 198 -627
232 -1305 17 -334 17 -1941 0 -2265 -41 -786 -120 -1149 -314 -1447 -242 -371
-597 -488 -1478 -488 -764 0 -1134 93 -1366 343 -246 265 -367 667 -414 1376
-32 478 -38 1955 -10 2506 33 652 96 1002 230 1280 208 428 497 584 1152 624
195 12 599 12 788 1z"/>
<path d="M2010 5811 c0 -4 107 -59 238 -123 264 -129 389 -201 444 -255 21
-20 41 -34 45 -30 3 4 6 31 5 60 -4 103 70 163 193 155 127 -8 227 -87 261
-206 15 -49 15 -67 5 -127 -19 -113 -106 -275 -148 -275 -12 0 -14 8 -9 38 19
116 19 175 1 208 -22 42 -70 64 -132 63 -26 -1 -38 -4 -25 -6 64 -13 75 -131
25 -275 -38 -109 -106 -232 -249 -451 -344 -524 -400 -641 -397 -827 2 -157
50 -309 153 -484 139 -235 398 -497 693 -701 48 -33 90 -68 93 -78 3 -10 0
-31 -6 -47 l-12 -29 -561 -4 c-397 -3 -575 -7 -607 -16 -25 -6 -62 -17 -84
-22 -46 -12 -122 -81 -167 -151 -31 -47 -32 -52 -26 -123 7 -81 36 -177 63
-206 10 -11 28 -19 42 -19 20 0 23 4 19 23 -26 112 -29 137 -23 178 9 63 56
133 112 169 154 97 355 3 381 -179 10 -68 34 -88 64 -52 26 31 24 67 -8 162
-30 88 -27 107 21 123 42 16 301 -10 813 -79 48 -7 63 5 119 92 19 29 43 57
54 63 17 9 23 4 49 -41 32 -57 121 -315 151 -442 11 -45 20 -108 20 -141 0
-32 5 -86 11 -120 l11 -61 -82 -210 c-91 -233 -200 -530 -200 -544 0 -5 -12
-23 -26 -40 -47 -57 -182 -85 -500 -105 -148 -10 -198 -16 -218 -29 -25 -17
-45 -62 -32 -74 3 -4 73 1 154 11 81 10 251 22 377 26 222 8 328 3 405 -20 19
-5 47 -10 62 -10 23 0 28 5 28 24 0 19 -11 28 -62 51 -126 56 -138 76 -94 163
60 119 336 773 346 818 10 49 9 59 -29 170 -34 103 -91 361 -91 416 0 22 30
24 70 3 59 -31 145 -163 184 -283 19 -57 43 -75 113 -90 l38 -8 3 -57 c3 -62
10 -70 74 -82 36 -7 37 -6 47 32 53 197 32 546 -49 834 -148 522 -460 940
-870 1165 -153 83 -208 120 -263 178 -93 97 -135 221 -123 362 13 159 54 264
220 561 148 266 177 343 183 483 4 90 2 113 -16 161 -57 149 -177 232 -359
246 -65 4 -88 2 -149 -19 l-72 -24 -208 42 c-271 55 -493 93 -493 85z"/>
<path d="M2835 5515 c-33 -33 -32 -70 4 -106 36 -35 70 -37 107 -5 37 31 39
90 5 117 -33 27 -86 25 -116 -6z"/>
<path d="M2013 2160 c-87 -52 -83 -198 6 -245 98 -50 211 16 211 123 0 85 -56
142 -140 142 -27 0 -58 -8 -77 -20z"/>
</g>
</svg>
